<svg width="32" height="32" viewBox="0 0 32 32" fill="none" xmlns="http://www.w3.org/2000/svg">
<path d="M24.234 11.78L16.819 7.042C16.448 6.816 15.552 6.816 15.181 7.042L7.766 11.78C7.395 12.006 7 12.544 7 13.023V22.023C7 22.502 7.395 23.04 7.766 23.266L15.181 27.958C15.552 28.184 16.448 28.184 16.819 27.958L24.234 23.266C24.605 23.04 25 22.502 25 22.023V13.023C25 12.544 24.605 12.006 24.234 11.78ZM16.325 14.542L12.923 16.44L10.352 14.958L16.325 11.23V14.542ZM16.325 15.939V24.528L8.91 20.28L16.325 15.939ZM17.675 14.542V11.23L23.648 14.958L21.077 16.44L17.675 14.542ZM17.675 15.939L25.09 20.28L17.675 24.528V15.939Z" fill="#8247E5"/>
</svg>
