<svg width="32" height="32" viewBox="0 0 32 32" fill="none" xmlns="http://www.w3.org/2000/svg">
<circle cx="16" cy="16" r="14" fill="#2775CA"/>
<path d="M16.0001 8.4209C11.9001 8.4209 8.57007 11.7509 8.57007 15.8509C8.57007 19.9509 11.9001 23.2809 16.0001 23.2809C20.1001 23.2809 23.4301 19.9509 23.4301 15.8509C23.4301 11.7509 20.1001 8.4209 16.0001 8.4209ZM17.9601 19.3909H14.4701C14.0701 19.3909 13.7501 19.0709 13.7501 18.6709V18.1009C13.7501 17.7009 14.0701 17.3809 14.4701 17.3809H15.1701C15.5701 17.3809 15.8901 17.0609 15.8901 16.6609V15.0409C15.8901 14.6409 15.5701 14.3209 15.1701 14.3209H14.0401C13.6401 14.3209 13.3201 14.0009 13.3201 13.6009V13.0309C13.3201 12.6309 13.6401 12.3109 14.0401 12.3109H17.9601C18.3601 12.3109 18.6801 12.6309 18.6801 13.0309V13.8009C18.6801 14.2009 18.3601 14.5209 17.9601 14.5209H16.8601C16.4601 14.5209 16.1401 14.8409 16.1401 15.2409V16.4609C16.1401 16.8609 16.4601 17.1809 16.8601 17.1809H17.9601C18.3601 17.1809 18.6801 17.5009 18.6801 17.9009V18.6709C18.6801 19.0709 18.3601 19.3909 17.9601 19.3909Z" fill="white"/>
</svg>