<svg width="32" height="32" viewBox="0 0 32 32" fill="none" xmlns="http://www.w3.org/2000/svg">
<circle cx="16" cy="16" r="14" fill="#222222"/>
<path d="M17.43 21.06C16.89 21.3 16.41 21.39 16.03 21.45V24H14.16V21.43C13.7 21.36 13.25 21.26 12.83 21.13L13.34 19.37C13.83 19.53 14.28 19.65 14.69 19.74V16.88L12.5 16.32V14.66L14.69 15.22V12.26L12.5 11.7V10.04L14.17 10.46V8H16.04V10.51C16.59 10.61 17.09 10.74 17.55 10.9L17.02 12.63C16.55 12.49 16.1 12.38 15.68 12.3V15.22L17.88 15.78V17.44L15.69 16.88V19.74C16.2 19.63 16.71 19.49 17.18 19.31L17.43 21.06ZM15.69 15.22V12.3C15.1 12.2 14.68 12.1 14.68 12.1V15.22L15.69 15.22Z" fill="#F7931A"/>
</svg>
