<svg width="24" height="24" viewBox="0 0 24 24" fill="none" xmlns="http://www.w3.org/2000/svg">
<path d="M18.1755 8.835L12.6142 5.2815C12.336 5.112 11.664 5.112 11.3858 5.2815L5.8245 8.835C5.54625 9.0045 5.25 9.408 5.25 9.76725V16.5202C5.25 16.8795 5.54625 17.283 5.8245 17.4525L11.3858 21.006C11.664 21.1755 12.336 21.1755 12.6142 21.006L18.1755 17.4525C18.4538 17.283 18.75 16.8795 18.75 16.5202V9.76725C18.75 9.408 18.4538 9.0045 18.1755 8.835ZM12.2438 10.9065L9.69225 12.33L7.764 11.2185L12.2438 8.4225V10.9065ZM12.2438 11.9542V18.396L6.6825 15.21L12.2438 11.9542ZM13.2562 10.9065V8.4225L17.736 11.2185L15.8078 12.33L13.2562 10.9065ZM13.2562 11.9542L18.8175 15.21L13.2562 18.396V11.9542Z" fill="#8247E5"/>
</svg>
